<svg width="32" height="32" viewBox="0 0 32 32" fill="none" xmlns="http://www.w3.org/2000/svg">
<path fill-rule="evenodd" clip-rule="evenodd" d="M14.9843 4.33622C15.292 4.15478 15.6428 4.05908 16 4.05908C16.3573 4.05908 16.708 4.15478 17.0158 4.33622C17.3232 4.51748 17.5765 4.7777 17.7495 5.08988M17.75 5.09084L21.4193 11.7055C21.4208 11.7077 21.423 11.7093 21.4256 11.7102C21.4284 11.7111 21.4315 11.711 21.4342 11.7099C21.4343 11.7098 21.4341 11.7099 21.4342 11.7099L27.7562 8.89872L27.7596 8.89724C28.1008 8.74701 28.4772 8.69514 28.8463 8.7475C29.2155 8.79985 29.5626 8.95434 29.8486 9.19353C30.1346 9.43271 30.348 9.74707 30.4648 10.1011C30.5813 10.4542 30.597 10.8328 30.5103 11.1943C30.51 11.1953 30.5098 11.1963 30.5096 11.1972L27.3217 24.7364C27.2581 24.9977 27.1428 25.2436 26.9826 25.4596C26.8224 25.6756 26.6205 25.8572 26.3889 25.9939C26.1573 26.1305 25.9006 26.2194 25.6341 26.2552C25.3675 26.291 25.0966 26.273 24.8371 26.2023L24.8332 26.2012C19.0491 24.5996 12.9385 24.5996 7.15437 26.2012L7.15044 26.2023C6.89099 26.273 6.61999 26.291 6.35346 26.2552C6.08692 26.2194 5.83027 26.1305 5.59867 25.9939C5.36706 25.8572 5.16518 25.6756 5.00497 25.4596C4.84475 25.2436 4.72945 24.9977 4.66587 24.7364L4.66391 24.7283L1.49047 11.1972C1.49017 11.196 1.48987 11.1947 1.48956 11.1935C1.40305 10.8322 1.41886 10.454 1.53525 10.1011C1.65204 9.74707 1.86548 9.43271 2.15146 9.19353C2.43744 8.95434 2.78459 8.79985 3.15372 8.7475C3.52284 8.69514 3.89926 8.74701 4.24047 8.89724L4.24383 8.89872L10.5655 11.7097C10.5656 11.7098 10.5654 11.7097 10.5655 11.7097C10.5682 11.7109 10.5716 11.7111 10.5745 11.7102C10.577 11.7093 10.5792 11.7077 10.5807 11.7055L14.2506 5.08988C14.4235 4.7777 14.6768 4.51748 14.9843 4.33622M12.3187 12.6955C12.0721 13.1278 11.674 13.4534 11.2014 13.6094C10.7287 13.7654 10.2151 13.7407 9.75955 13.5402L9.75622 13.5387L3.43457 10.7277L3.43612 10.7341L6.60939 24.2643C6.60981 24.2657 6.61045 24.2669 6.61128 24.268C6.61193 24.2689 6.6127 24.2697 6.61356 24.2704C6.614 24.2707 6.61447 24.2711 6.61497 24.2713C6.61641 24.2722 6.61801 24.2727 6.61965 24.273C6.62118 24.2732 6.62273 24.2731 6.62424 24.2727C12.7565 22.5755 19.2347 22.5758 25.3669 24.2737L25.1 25.2375L25.3629 24.2726C25.3646 24.2731 25.3662 24.2732 25.3679 24.273C25.3695 24.2727 25.3711 24.2722 25.3726 24.2713C25.374 24.2705 25.3753 24.2694 25.3763 24.268C25.3768 24.2673 25.3773 24.2664 25.3777 24.2656C25.3779 24.2651 25.378 24.2647 25.3782 24.2642C25.3783 24.264 25.3781 24.2645 25.3782 24.2642L28.5641 10.7333L28.5655 10.7277L22.2438 13.5387L22.2405 13.5402C21.785 13.7407 21.2713 13.7654 20.7987 13.6094C20.326 13.4534 19.928 13.1277 19.6814 12.6954L19.6755 12.6851L16 6.05908L12.3187 12.6955Z" fill="black"/>
</svg>
