<svg width="13" height="7" viewBox="0 0 13 7" fill="none" xmlns="http://www.w3.org/2000/svg">
<path d="M8.17834 5.69169L11.8121 2.05794C11.9595 1.90962 12.0423 1.70897 12.0423 1.49982C12.0423 1.29067 11.9595 1.09002 11.8121 0.941693C11.7385 0.867492 11.6509 0.808596 11.5545 0.768404C11.458 0.728212 11.3545 0.70752 11.25 0.70752C11.1455 0.70752 11.042 0.728212 10.9455 0.768404C10.8491 0.808596 10.7615 0.867492 10.6879 0.941693L7.06209 4.58336C6.98849 4.65756 6.90093 4.71646 6.80446 4.75665C6.70799 4.79684 6.60451 4.81753 6.5 4.81753C6.39549 4.81753 6.29202 4.79684 6.19555 4.75665C6.09907 4.71646 6.01152 4.65756 5.93792 4.58336L2.31209 0.941693C2.16406 0.792619 1.96288 0.708454 1.7528 0.707711C1.54272 0.706969 1.34095 0.789712 1.19188 0.937736C1.0428 1.08576 0.958637 1.28694 0.957894 1.49702C0.957152 1.7071 1.0399 1.90887 1.18792 2.05794L4.82167 5.69169C5.26698 6.13645 5.87063 6.38627 6.5 6.38627C7.12938 6.38627 7.73302 6.13645 8.17834 5.69169Z" fill="#1B1B1B"/>
</svg>
