<svg width="16" height="18" viewBox="0 0 16 18" fill="none" xmlns="http://www.w3.org/2000/svg">
<path d="M13.9177 17.9974C13.6487 17.9966 13.3825 17.9409 13.1344 17.8334C12.8864 17.726 12.6615 17.5689 12.4727 17.3712L7.99999 12.7864L3.52732 17.3742C3.24007 17.6747 2.87168 17.879 2.47018 17.9605C2.06868 18.042 1.65269 17.9968 1.27644 17.8309C0.896454 17.6733 0.571389 17.4012 0.343692 17.0502C0.115994 16.6992 -0.00375214 16.2855 8.96253e-05 15.8632V3.74946C8.96253e-05 2.75504 0.383201 1.80135 1.06514 1.09819C1.74709 0.395031 2.672 0 3.63641 0L12.3636 0C12.8411 0 13.314 0.0969826 13.7551 0.28541C14.1963 0.473838 14.5972 0.750021 14.9348 1.09819C15.2725 1.44636 15.5404 1.8597 15.7231 2.3146C15.9058 2.76951 15.9999 3.25707 15.9999 3.74946V15.8632C16.004 16.2851 15.8847 16.6986 15.6575 17.0496C15.4303 17.4006 15.1059 17.6728 14.7265 17.8309C14.4703 17.9414 14.1954 17.998 13.9177 17.9974ZM3.63641 1.49978C3.05776 1.49978 2.50282 1.7368 2.09365 2.1587C1.68448 2.58059 1.45462 3.15281 1.45462 3.74946V15.8632C1.45436 15.9882 1.49001 16.1104 1.55709 16.2145C1.62417 16.3185 1.71965 16.3998 1.83148 16.4479C1.94331 16.4961 2.06647 16.509 2.1854 16.485C2.30434 16.461 2.4137 16.4012 2.4997 16.3131L7.49091 11.1981C7.62717 11.0585 7.8115 10.9801 8.00363 10.9801C8.19576 10.9801 8.38009 11.0585 8.51635 11.1981L13.5017 16.3116C13.5877 16.3997 13.6971 16.4595 13.816 16.4835C13.935 16.5075 14.0581 16.4946 14.17 16.4464C14.2818 16.3983 14.3773 16.317 14.4444 16.213C14.5114 16.1089 14.5471 15.9867 14.5468 15.8617V3.74946C14.5468 3.15281 14.317 2.58059 13.9078 2.1587C13.4986 1.7368 12.9437 1.49978 12.365 1.49978H3.63641Z" fill="#1A9207"/>
</svg>
