<svg width="34" height="36" viewBox="0 0 34 36" fill="none" xmlns="http://www.w3.org/2000/svg">
<path d="M15.4129 0.068634C6.51446 0.960957 -0.26562 8.87517 0.0199267 18.0524C0.106255 20.7225 0.664067 23.0356 1.79961 25.39C3.45313 28.8357 6.0961 31.5676 9.43633 33.2836C14.8484 36.0704 21.25 35.686 26.2969 32.2746C28.2691 30.943 30.1418 28.9662 31.4168 26.8658C31.9082 26.0695 32.6387 24.5183 32.9707 23.5848C33.3094 22.6375 33.7012 21.0039 33.8406 19.94C33.9934 18.8623 34.0133 16.3638 33.8805 15.4097C33.4887 12.5611 32.6121 10.1313 31.1578 7.86616C30.5469 6.9052 29.9293 6.1227 29.066 5.22351C26.4164 2.45731 23.1227 0.74131 19.3574 0.16473C18.5473 0.0411797 16.2629 -0.0137329 15.4129 0.068634ZM10.7113 8.40841C11.3754 8.58688 11.8934 9.03304 12.1789 9.67139C12.3914 10.1519 12.3715 10.9618 12.1391 11.4766C11.7938 12.2385 11.143 12.6916 10.3195 12.7533C9.44297 12.8151 8.73243 12.4101 8.30743 11.6002C8.08829 11.1883 8.06836 11.1128 8.06836 10.5706C8.06836 9.89791 8.20118 9.52725 8.59961 9.06736C8.91172 8.71043 9.18399 8.53883 9.63555 8.41528C10.1004 8.28486 10.2531 8.28486 10.7113 8.40841ZM23.0031 14.3458C24.2914 14.6821 25.0816 15.4372 25.5266 16.7551C25.8918 17.8396 25.9117 18.0867 25.9449 22.6307L25.9781 26.8383H24.1188H22.2527L22.2328 23.0768C22.2063 19.3908 22.2063 19.3153 22.0535 18.8555C21.7613 17.9425 21.2633 17.5787 20.3137 17.5719C19.1316 17.5719 18.5672 18.018 18.2086 19.2398C18.1223 19.5419 18.1023 20.1733 18.0824 23.2141L18.0559 26.8383H16.2297H14.4102V20.6607V14.4831H16.1699H17.9297L17.9363 15.3205V16.1648L18.0824 15.9588C18.7664 15.0047 19.6098 14.4488 20.6855 14.236C21.2766 14.1193 22.3391 14.1673 23.0031 14.3458ZM12.0727 20.6401L12.0527 26.804L10.2133 26.8246L8.36719 26.8383V20.6607V14.4831H10.2266H12.0859L12.0727 20.6401Z" fill="#34258F"/>
</svg>
