<svg width="34" height="36" viewBox="0 0 34 36" fill="none" xmlns="http://www.w3.org/2000/svg">
<path d="M15.4129 0.0686264C9.64881 0.645206 4.49569 4.25568 1.88592 9.5547C0.962876 11.4286 0.418345 13.2338 0.119517 15.4097C-0.0132954 16.3707 0.00662644 18.8692 0.159361 19.94C0.418345 21.8482 0.962876 23.6534 1.79959 25.39C3.45311 28.8357 6.09608 31.5676 9.43631 33.2836C14.8484 36.0704 21.25 35.686 26.2969 32.2746C28.2691 30.943 30.1418 28.9661 31.4168 26.8658C31.9082 26.0695 32.6387 24.5183 32.9707 23.5848C33.3094 22.6375 33.7012 21.0039 33.8406 19.94C33.9933 18.8623 34.0133 16.3638 33.8804 15.4097C33.4887 12.5611 32.6121 10.1313 31.1578 7.86615C30.5469 6.90519 29.9293 6.12269 29.066 5.22351C26.4164 2.45731 23.1226 0.741302 19.3574 0.164722C18.5472 0.041172 16.2629 -0.0137405 15.4129 0.0686264ZM18.2883 12.0463C18.4344 12.1218 18.6137 12.2729 18.6867 12.3758C18.8195 12.5611 18.8262 12.6572 18.8262 14.8469C18.8328 17.2561 18.8726 17.6131 19.1316 17.8053C19.3109 17.9357 19.4305 17.8876 19.7758 17.5444C20.5594 16.7757 21.582 15.1146 22.193 13.6113C22.3789 13.1446 22.6047 12.6847 22.6976 12.5955C22.9168 12.3689 23.2422 12.3415 25.334 12.3689C26.8945 12.3895 27.1535 12.4033 27.3394 12.5131C27.6383 12.6778 27.6781 12.8975 27.5054 13.4466C27.2996 14.1055 26.9144 14.737 25.6394 16.5285C24.1719 18.5878 24.0457 18.8417 24.2449 19.2398C24.2847 19.3222 24.8226 19.9125 25.4336 20.5577C26.4961 21.6766 27.2199 22.5826 27.4988 23.1386C27.7445 23.6397 27.6117 24.0927 27.1535 24.3398C26.8879 24.4771 25.7457 24.5251 24.298 24.4565C22.691 24.3741 22.6047 24.3329 21.2765 22.8915C20.234 21.7521 19.9883 21.553 19.6695 21.553C19.2644 21.553 19.1449 21.8138 18.9258 23.1317C18.8062 23.8593 18.773 23.9348 18.5672 24.1339C18.3746 24.3261 18.2883 24.3535 17.8035 24.4016C16.0504 24.5594 14.1512 24.0241 12.7168 22.9601C11.2492 21.8756 9.68202 19.7821 8.13475 16.8237C7.44412 15.5058 6.37498 13.124 6.37498 12.8975C6.37498 12.8014 6.43475 12.6366 6.51444 12.5337L6.64725 12.3552H8.30741C9.29022 12.3552 10.0871 12.3827 10.2531 12.4307C10.6715 12.5406 10.9039 12.8288 11.2558 13.6937C12.0262 15.5676 13.4472 17.7503 13.9851 17.8876C14.3371 17.9769 14.4832 17.716 14.6226 16.7551C14.7023 16.1716 14.6492 14.0438 14.543 13.6525C14.4566 13.3368 14.1711 13.0622 13.7726 12.9181C13.5734 12.8426 13.4406 12.7465 13.4273 12.6778C13.3742 12.4101 13.7527 12.0669 14.2441 11.9365C14.357 11.9091 15.2535 11.8885 16.2363 11.8953C17.8832 11.9091 18.0492 11.9228 18.2883 12.0463Z" fill="#34258F"/>
</svg>
