<svg width="34" height="36" viewBox="0 0 34 36" fill="none" xmlns="http://www.w3.org/2000/svg">
<path d="M15.373 0.0755157C10.0605 0.645229 5.40546 3.63108 2.57656 8.28488C-1.43438 14.8743 -0.683993 23.5848 4.38281 29.3231C7.19179 32.5011 10.698 34.4025 14.9082 35.0202C15.6918 35.1369 18.3016 35.1301 19.125 35.0202C22.9699 34.4711 26.4098 32.7071 29.0262 29.9477C29.8895 29.0417 30.0688 28.8289 30.6398 28.0464C32.3398 25.7058 33.4488 22.8503 33.8805 19.7341C33.9934 18.9241 33.9934 16.2197 33.8805 15.4097C33.5949 13.3299 33.0703 11.559 32.2402 9.82242C31.3504 7.98287 30.4473 6.67184 29.0328 5.19607C26.4098 2.45047 23.1293 0.741325 19.3574 0.164749C18.5406 0.0411987 16.1832 -0.0137138 15.373 0.0755157ZM21.0043 7.55043C22.9168 7.68085 24.0324 8.11328 25.0551 9.11543C26.091 10.1382 26.5691 11.3943 26.6953 13.4329C26.7816 14.7714 26.7816 20.3381 26.6953 21.6972C26.5691 23.7564 26.0777 25.0262 25.0152 26.0627C24.0258 27.0305 22.8836 27.4698 21.0043 27.5934C19.7293 27.6757 14.2707 27.6757 12.9957 27.5934C11.0832 27.4629 9.96757 27.0305 8.94492 26.0284C7.90898 25.0056 7.43085 23.7495 7.30468 21.7109C7.21835 20.3793 7.22499 14.6547 7.30468 13.3917C7.43749 11.3806 7.91562 10.1313 8.94492 9.11543C9.92773 8.15447 11.1031 7.67398 12.8098 7.5573C13.932 7.47493 19.8555 7.47493 21.0043 7.55043Z" fill="#34258F"/>
<path d="M14.5762 9.34194C12.584 9.38312 12.2586 9.40371 11.8137 9.52726C10.3992 9.92538 9.5957 10.7491 9.21719 12.2111C9.09766 12.671 9.07773 13.0142 9.03789 15.1558C9.01797 16.4805 9.01797 18.6633 9.03789 19.9949C9.07773 22.1296 9.09766 22.4728 9.21719 22.9327C9.5957 24.3947 10.3992 25.2253 11.8137 25.6165C12.2586 25.7401 12.5906 25.7607 14.6625 25.8018C15.9441 25.8224 18.0559 25.8224 19.3441 25.8018C21.4227 25.7607 21.7414 25.7401 22.1996 25.6097C23.5742 25.2321 24.4109 24.3741 24.7828 22.9464C24.9023 22.4659 24.9223 22.1502 24.9621 19.988C24.982 18.6633 24.982 16.4805 24.9621 15.1489C24.9223 13.0073 24.9023 12.671 24.7828 12.2111C24.4043 10.7491 23.5941 9.91165 22.1863 9.52726C21.6684 9.38998 21.5355 9.38312 17.7969 9.31448C17.2656 9.30762 15.818 9.32134 14.5762 9.34194ZM22.6246 11.0579C22.877 11.154 23.1758 11.4492 23.282 11.7169C23.6074 12.4925 23.0297 13.3848 22.2129 13.3848C21.5887 13.3848 21.0508 12.8357 21.0508 12.1905C21.0508 11.36 21.8742 10.7628 22.6246 11.0579ZM18.6137 12.6778C19.4172 12.9661 19.8621 13.2613 20.493 13.8996C21.1039 14.5243 21.4824 15.142 21.7613 15.9588C21.934 16.4668 21.9473 16.5835 21.9473 17.5719C21.9473 18.5603 21.934 18.677 21.7613 19.1849C21.4957 19.9743 21.0973 20.6195 20.5262 21.2167C19.9484 21.807 19.3242 22.2188 18.5605 22.4934C18.0691 22.6719 17.9563 22.6856 17 22.6856C16.0438 22.6856 15.9309 22.6719 15.4395 22.4934C14.6492 22.2051 14.0516 21.8139 13.4473 21.1824C12.8297 20.5303 12.5508 20.0704 12.2586 19.2398C12.0594 18.6564 12.0527 18.5946 12.0527 17.5719C12.0594 16.6041 12.0727 16.4599 12.2387 15.9588C12.584 14.8949 13.3211 13.8928 14.2109 13.2819C15.1805 12.6161 15.8777 12.417 17.1328 12.4445C17.9297 12.4651 18.0891 12.4925 18.6137 12.6778Z" fill="#34258F"/>
<path d="M16.2164 14.3183C14.4699 14.7988 13.4074 16.6109 13.8457 18.3544C14.1644 19.6105 15.0277 20.5028 16.2496 20.8323C18.534 21.45 20.7519 19.1575 20.1543 16.7962C19.6894 14.9636 17.9164 13.8447 16.2164 14.3183Z" fill="#34258F"/>
</svg>
