<svg width="34" height="36" viewBox="0 0 34 36" fill="none" xmlns="http://www.w3.org/2000/svg">
<path fill-rule="evenodd" clip-rule="evenodd" d="M34 17.5719C34 27.2766 26.3888 35.1438 17 35.1438C7.61116 35.1438 0 27.2766 0 17.5719C0 7.8672 7.61116 0 17 0C26.3888 0 34 7.8672 34 17.5719ZM17.6092 12.9723C15.9557 13.6832 12.651 15.1546 7.69518 17.3864C6.89043 17.7172 6.46886 18.0408 6.43049 18.3572C6.36563 18.892 7.01351 19.1025 7.89575 19.3893C8.01576 19.4283 8.1401 19.4687 8.26758 19.5115C9.13557 19.8032 10.3032 20.1444 10.9102 20.1579C11.4608 20.1702 12.0753 19.9356 12.7537 19.454C17.3841 16.2232 19.7744 14.5902 19.9244 14.555C20.0303 14.5302 20.177 14.499 20.2764 14.5903C20.3758 14.6816 20.3661 14.8546 20.3555 14.901C20.2913 15.1838 17.7482 17.6277 16.4321 18.8924C16.0218 19.2867 15.7308 19.5663 15.6713 19.6302C15.538 19.7733 15.4022 19.9086 15.2716 20.0387C14.4653 20.8422 13.8605 21.4448 15.3051 22.4287C15.9993 22.9016 16.5548 23.2926 17.109 23.6827C17.7143 24.1087 18.3179 24.5337 19.099 25.0629C19.2979 25.1977 19.488 25.3378 19.6731 25.4742C20.3774 25.9932 21.0102 26.4595 21.792 26.3851C22.2463 26.3419 22.7155 25.9004 22.9538 24.5836C23.517 21.4716 24.624 14.7288 24.8798 11.9503C24.9022 11.7069 24.874 11.3953 24.8514 11.2586C24.8287 11.1218 24.7814 10.9269 24.6094 10.7827C24.4058 10.6119 24.0913 10.5758 23.9507 10.5784C23.3113 10.59 22.3303 10.9426 17.6092 12.9723Z" fill="#34258F"/>
</svg>
