<svg width="18" height="18" viewBox="0 0 18 18" fill="none" xmlns="http://www.w3.org/2000/svg">
<path fill-rule="evenodd" clip-rule="evenodd" d="M2.7 1.5C2.46131 1.5 2.04378 1.70622 1.875 1.875C1.70622 2.04378 1.5 2.38631 1.5 2.625V15.75L4.125 13.125C4.29378 12.9562 4.6341 12.75 4.87279 12.75H15.3C15.5387 12.75 16.0312 12.5438 16.2 12.375C16.3688 12.2062 16.5 11.9387 16.5 11.7V2.7C16.5 2.4613 16.2938 2.04378 16.125 1.875C15.9562 1.70622 15.5387 1.5 15.3 1.5H2.7ZM0.790812 0.790811C1.29716 0.284463 1.98392 0 2.7 0H15.3C16.0161 0 16.7028 0.284463 17.2092 0.790811C17.7155 1.29716 18 1.98391 18 2.7V11.7C18 12.4161 17.7563 12.9937 17.25 13.5C16.7437 14.0063 16.0161 14.25 15.3 14.25H4.87279L1.5364 17.7364C1.279 17.9938 0.891892 18.0708 0.555585 17.9315C0.219278 17.7922 0 17.464 0 17.1V2.7C0 1.98391 0.284463 1.29716 0.790812 0.790811Z" fill="#1F4EF6"/>
</svg>
