<svg width="21" height="18" viewBox="0 0 21 18" fill="none" xmlns="http://www.w3.org/2000/svg">
<path d="M15.3106 0C14.3257 0.0149445 13.3622 0.283151 12.5176 0.777534C11.673 1.27192 10.977 1.97497 10.5 2.8157C10.023 1.97497 9.32704 1.27192 8.4824 0.777534C7.63775 0.283151 6.67434 0.0149445 5.68944 0C4.1194 0.0665449 2.64016 0.736564 1.57491 1.86368C0.509657 2.99079 -0.0550236 4.48338 0.00423426 6.01535C0.00423426 9.89504 4.1903 14.1322 7.70113 17.0051C8.485 17.6477 9.4761 18 10.5 18C11.5239 18 12.515 17.6477 13.2989 17.0051C16.8097 14.1322 20.9958 9.89504 20.9958 6.01535C21.055 4.48338 20.4903 2.99079 19.4251 1.86368C18.3598 0.736564 16.8806 0.0665449 15.3106 0ZM12.1749 15.6996C11.7061 16.0848 11.1129 16.296 10.5 16.296C9.88709 16.296 9.29388 16.0848 8.82505 15.6996C4.33111 12.0213 1.75353 8.49231 1.75353 6.01535C1.69374 4.93576 2.07397 3.8769 2.81129 3.06971C3.54862 2.26251 4.58322 1.77248 5.68944 1.70648C6.79567 1.77248 7.83026 2.26251 8.56759 3.06971C9.30491 3.8769 9.68514 4.93576 9.62535 6.01535C9.62535 6.24164 9.7175 6.45867 9.88153 6.61868C10.0456 6.7787 10.268 6.86859 10.5 6.86859C10.732 6.86859 10.9544 6.7787 11.1185 6.61868C11.2825 6.45867 11.3746 6.24164 11.3746 6.01535C11.3149 4.93576 11.6951 3.8769 12.4324 3.06971C13.1697 2.26251 14.2043 1.77248 15.3106 1.70648C16.4168 1.77248 17.4514 2.26251 18.1887 3.06971C18.926 3.8769 19.3063 4.93576 19.2465 6.01535C19.2465 8.49231 16.6689 12.0213 12.1749 15.6962V15.6996Z" fill="#FF4F8E"/>
</svg>
