<svg width="82" height="82" viewBox="0 0 82 82" fill="none" xmlns="http://www.w3.org/2000/svg">
<g filter="url(#filter0_ddi_50_73)">
<path d="M16 41C16 27.1929 27.1929 16 41 16C54.8071 16 66 27.1929 66 41C66 54.8071 54.8071 66 41 66C27.1929 66 16 54.8071 16 41Z" fill="#5643CA"/>
<path fill-rule="evenodd" clip-rule="evenodd" d="M33.4645 44.4645C34.4021 43.5268 35.6739 43 37 43H45C46.3261 43 47.5979 43.5268 48.5355 44.4645C49.4732 45.4021 50 46.6739 50 48V50C50 50.5523 49.5523 51 49 51C48.4477 51 48 50.5523 48 50V48C48 47.2044 47.6839 46.4413 47.1213 45.8787C46.5587 45.3161 45.7956 45 45 45H37C36.2044 45 35.4413 45.3161 34.8787 45.8787C34.3161 46.4413 34 47.2044 34 48V50C34 50.5523 33.5523 51 33 51C32.4477 51 32 50.5523 32 50V48C32 46.6739 32.5268 45.4021 33.4645 44.4645Z" fill="#F5F2FF"/>
<path fill-rule="evenodd" clip-rule="evenodd" d="M41 33C39.3431 33 38 34.3431 38 36C38 37.6569 39.3431 39 41 39C42.6569 39 44 37.6569 44 36C44 34.3431 42.6569 33 41 33ZM36 36C36 33.2386 38.2386 31 41 31C43.7614 31 46 33.2386 46 36C46 38.7614 43.7614 41 41 41C38.2386 41 36 38.7614 36 36Z" fill="#F5F2FF"/>
</g>
<defs>
<filter id="filter0_ddi_50_73" x="-16" y="-16" width="100" height="100" filterUnits="userSpaceOnUse" color-interpolation-filters="sRGB">
<feFlood flood-opacity="0" result="BackgroundImageFix"/>
<feColorMatrix in="SourceAlpha" type="matrix" values="0 0 0 0 0 0 0 0 0 0 0 0 0 0 0 0 0 0 127 0" result="hardAlpha"/>
<feOffset dx="3" dy="3"/>
<feGaussianBlur stdDeviation="7.5"/>
<feColorMatrix type="matrix" values="0 0 0 0 0.528889 0 0 0 0 0.484028 0 0 0 0 0.708333 0 0 0 0.35 0"/>
<feBlend mode="normal" in2="BackgroundImageFix" result="effect1_dropShadow_50_73"/>
<feColorMatrix in="SourceAlpha" type="matrix" values="0 0 0 0 0 0 0 0 0 0 0 0 0 0 0 0 0 0 127 0" result="hardAlpha"/>
<feOffset dx="-12" dy="-12"/>
<feGaussianBlur stdDeviation="10"/>
<feColorMatrix type="matrix" values="0 0 0 0 1 0 0 0 0 1 0 0 0 0 1 0 0 0 0.8 0"/>
<feBlend mode="normal" in2="effect1_dropShadow_50_73" result="effect2_dropShadow_50_73"/>
<feBlend mode="normal" in="SourceGraphic" in2="effect2_dropShadow_50_73" result="shape"/>
<feColorMatrix in="SourceAlpha" type="matrix" values="0 0 0 0 0 0 0 0 0 0 0 0 0 0 0 0 0 0 127 0" result="hardAlpha"/>
<feOffset dy="4"/>
<feGaussianBlur stdDeviation="2.5"/>
<feComposite in2="hardAlpha" operator="arithmetic" k2="-1" k3="1"/>
<feColorMatrix type="matrix" values="0 0 0 0 0.299814 0 0 0 0 0.251806 0 0 0 0 0.616667 0 0 0 1 0"/>
<feBlend mode="normal" in2="shape" result="effect3_innerShadow_50_73"/>
</filter>
</defs>
</svg>
